<svg width="512" height="512" viewBox="0 0 512 512" fill="none" xmlns="http://www.w3.org/2000/svg">
  <rect width="512" height="512" fill="#4F46E5"/>
  <path d="M256 106.7C173.1 106.7 106.7 173.1 106.7 256C106.7 338.9 173.1 405.3 256 405.3C338.9 405.3 405.3 338.9 405.3 256C405.3 173.1 338.9 106.7 256 106.7ZM256 362.7C196.3 362.7 149.3 315.7 149.3 256C149.3 196.3 196.3 149.3 256 149.3C315.7 149.3 362.7 196.3 362.7 256C362.7 315.7 315.7 362.7 256 362.7Z" fill="white"/>
  <path d="M298.7 213.3L234.7 298.7H277.3L256 362.7L320 277.3H277.3L298.7 213.3Z" fill="white"/>
</svg> 